<svg width="320" height="300" viewBox="0 0 320 300" fill="none" xmlns="http://www.w3.org/2000/svg">
<rect x="-47" y="168" width="84" height="84" rx="21.3333" fill="url(#paint0_linear_1002_28374)"/>
<rect x="121" y="84" width="84" height="84" rx="21.3333" transform="rotate(90 121 84)" fill="url(#paint1_linear_1002_28374)"/>
<rect x="121" y="84" width="84" height="84" rx="21.3333" fill="url(#paint2_linear_1002_28374)"/>
<rect x="121" y="252" width="84" height="84" rx="21.3333" transform="rotate(-90 121 252)" fill="url(#paint3_linear_1002_28374)"/>
<rect x="205" y="168" width="84" height="84" rx="21.3333" fill="url(#paint4_linear_1002_28374)"/>
<rect x="205" y="336" width="84" height="84" rx="21.3333" transform="rotate(-90 205 336)" fill="url(#paint5_linear_1002_28374)"/>
<rect x="289" y="84" width="84" height="84" rx="21.3333" transform="rotate(-180 289 84)" fill="url(#paint6_linear_1002_28374)"/>
<path d="M15 168.002C27.1126 168.002 36.9371 158.163 37 146C37.0629 158.16 46.8874 168.002 59 168.002C46.8874 168.002 37.0629 177.84 37 190C36.9371 177.84 27.1126 168.002 15 168.002Z" fill="white"/>
<path d="M99 168.002C111.113 168.002 120.937 158.163 121 146C121.063 158.16 130.887 168.002 143 168.002C130.887 168.002 121.063 177.84 121 190C120.937 177.84 111.113 168.002 99 168.002Z" fill="white"/>
<path d="M183 252.002C195.113 252.002 204.937 242.163 205 230C205.063 242.16 214.887 252.002 227 252.002C214.887 252.002 205.063 261.84 205 274C204.937 261.84 195.113 252.002 183 252.002Z" fill="white"/>
<path d="M267 252.002C279.113 252.002 288.937 242.163 289 230C289.063 242.16 298.887 252.002 311 252.002C298.887 252.002 289.063 261.84 289 274C288.937 261.84 279.113 252.002 267 252.002Z" fill="white"/>
<path d="M183 84.0016C195.113 84.0016 204.937 74.1634 205 62C205.063 74.1603 214.887 84.0016 227 84.0016C214.887 84.0016 205.063 93.8397 205 106C204.937 93.8397 195.113 84.0016 183 84.0016Z" fill="#8C8C8C"/>
<rect x="-131" width="451" height="300" fill="url(#paint7_linear_1002_28374)"/>
<defs>
<linearGradient id="paint0_linear_1002_28374" x1="-5" y1="168" x2="-5" y2="252" gradientUnits="userSpaceOnUse">
<stop stop-color="#3C37FF"/>
<stop offset="1" stop-color="#FE66BA"/>
</linearGradient>
<linearGradient id="paint1_linear_1002_28374" x1="163" y1="84" x2="163" y2="168" gradientUnits="userSpaceOnUse">
<stop stop-color="#3C37FF"/>
<stop offset="1" stop-color="#FE66BA"/>
</linearGradient>
<linearGradient id="paint2_linear_1002_28374" x1="163" y1="84" x2="163" y2="168" gradientUnits="userSpaceOnUse">
<stop stop-color="#3C37FF"/>
<stop offset="1" stop-color="#FE66BA"/>
</linearGradient>
<linearGradient id="paint3_linear_1002_28374" x1="163" y1="252" x2="163" y2="336" gradientUnits="userSpaceOnUse">
<stop stop-color="#3C37FF"/>
<stop offset="1" stop-color="#FE66BA"/>
</linearGradient>
<linearGradient id="paint4_linear_1002_28374" x1="247" y1="168" x2="247" y2="252" gradientUnits="userSpaceOnUse">
<stop stop-color="#3C37FF"/>
<stop offset="1" stop-color="#FE66BA"/>
</linearGradient>
<linearGradient id="paint5_linear_1002_28374" x1="247" y1="336" x2="247" y2="420" gradientUnits="userSpaceOnUse">
<stop stop-color="#3C37FF"/>
<stop offset="1" stop-color="#FE66BA"/>
</linearGradient>
<linearGradient id="paint6_linear_1002_28374" x1="331" y1="84" x2="331" y2="168" gradientUnits="userSpaceOnUse">
<stop stop-color="#3C37FF"/>
<stop offset="1" stop-color="#FE66BA"/>
</linearGradient>
<linearGradient id="paint7_linear_1002_28374" x1="94.5" y1="0" x2="94.5" y2="300" gradientUnits="userSpaceOnUse">
<stop offset="0.270833" stop-color="#111111" stop-opacity="0"/>
<stop offset="0.403332" stop-color="#111111" stop-opacity="0.25"/>
<stop offset="0.618418" stop-color="#111111" stop-opacity="0.5"/>
<stop offset="0.844824" stop-color="#111111"/>
</linearGradient>
</defs>
</svg>
