<svg width="61" height="27" viewBox="0 0 61 27" fill="none" xmlns="http://www.w3.org/2000/svg">
<path fill-rule="evenodd" clip-rule="evenodd" d="M40.2702 20.672C41.4402 20.672 42.2466 20.484 43.9863 19.4503L42.807 16.6855C42.3283 16.8971 41.9202 16.96 41.2602 16.96C40.1502 16.96 39.5202 16.32 39.5202 14.976V6.91201H42.6807V3.61601H39.5202V0H35.2002V15.392C35.2002 18.88 36.9702 20.672 40.2702 20.672ZM15.69 15.0712C15.18 18.6872 12.48 20.7033 8.19002 20.7033C3.45001 20.7033 0 17.5352 0 12.1912V11.9352C0 6.65528 3.51 3.23125 8.07001 3.23125C12.12 3.23125 15.7201 5.75923 15.7201 11.7432V13.0232H4.41004C4.53001 15.8072 5.94001 17.4072 8.31002 17.4072C10.32 17.4072 11.3101 16.4792 11.58 15.0712H15.69ZM8.07001 6.43125C6.12003 6.43125 4.80002 7.80723 4.47002 10.1752H11.49C11.34 7.64727 10.14 6.43125 8.07001 6.43125ZM22.2577 20.3513H17.9078V3.61524H22.2577V6.27124C23.0377 4.60723 24.7477 3.23125 27.3578 3.23125C30.4478 3.23125 32.6378 5.21524 32.6378 9.6952V20.3513H28.2877V10.3672C28.2877 8.09527 27.4477 7.00723 25.5277 7.00723C23.6677 7.00723 22.2577 8.22324 22.2577 10.6872V20.3513ZM51.8941 26.0476H47.6941L50.4541 18.6556L44.2142 3.61563H48.8941L52.7041 13.6636L56.214 3.61563H60.3842L51.8941 26.0476Z" fill="black"/>
</svg>
