<svg width="78" height="16" viewBox="0 0 78 16" fill="none" xmlns="http://www.w3.org/2000/svg">
<path fill-rule="evenodd" clip-rule="evenodd" d="M14.4704 0H2.33427C1.26728 0 0.402344 0.864941 0.402344 1.93192V14.0681C0.402344 15.1351 1.26728 16 2.33427 16H14.4704C15.5374 16 16.4023 15.1351 16.4023 14.0681V1.93192C16.4023 0.864941 15.5374 0 14.4704 0ZM4.46718 10.6507C3.59063 10.7768 2.77787 10.1685 2.65176 9.29203C2.52564 8.41558 3.13395 7.60272 4.0104 7.4766C4.88694 7.35048 5.6997 7.9588 5.82582 8.83524C5.95194 9.71169 5.34373 10.5245 4.46718 10.6507ZM13.8567 6.06086L8.92145 12.6555C8.7754 12.851 8.58567 13.0097 8.36742 13.1189C8.14916 13.2281 7.9084 13.2847 7.66436 13.2844C7.33735 13.2844 7.00773 13.1825 6.72569 12.9715C6.03204 12.4524 5.89066 11.4694 6.40966 10.7757L11.3449 4.18112C11.864 3.48748 12.8469 3.34609 13.5406 3.8651C14.2342 4.38421 14.3757 5.36732 13.8567 6.06086Z" fill="#B8B8B8"/>
<path fill-rule="evenodd" clip-rule="evenodd" d="M23.5841 7.6999C24.1107 7.97324 24.7107 8.1099 25.3841 8.1099C26.0641 8.1099 26.6641 7.97324 27.1841 7.6999C27.7041 7.42657 28.1141 7.0399 28.4141 6.5399C28.7141 6.0399 28.8641 5.44657 28.8641 4.7599C28.8641 4.06657 28.7141 3.4699 28.4141 2.9699C28.1141 2.4699 27.7041 2.08324 27.1841 1.8099C26.6641 1.53657 26.0641 1.3999 25.3841 1.3999C24.7107 1.3999 24.1107 1.53657 23.5841 1.8099C23.0641 2.08324 22.6541 2.4699 22.3541 2.9699C22.0607 3.4699 21.9141 4.06657 21.9141 4.7599C21.9141 5.44657 22.0607 6.0399 22.3541 6.5399C22.6541 7.0399 23.0641 7.42657 23.5841 7.6999ZM26.6641 6.9599C26.2907 7.14657 25.8641 7.2399 25.3841 7.2399C24.9174 7.2399 24.4941 7.14657 24.1141 6.9599C23.7341 6.77324 23.4341 6.49657 23.2141 6.1299C22.9941 5.76324 22.8841 5.30657 22.8841 4.7599C22.8841 4.21324 22.9941 3.75657 23.2141 3.3899C23.4341 3.02324 23.7341 2.74657 24.1141 2.5599C24.4941 2.36657 24.9174 2.2699 25.3841 2.2699C25.8641 2.2699 26.2907 2.36657 26.6641 2.5599C27.0374 2.74657 27.3341 3.02324 27.5541 3.3899C27.7741 3.75657 27.8841 4.21324 27.8841 4.7599C27.8841 5.30657 27.7741 5.76324 27.5541 6.1299C27.3341 6.49657 27.0374 6.77324 26.6641 6.9599Z" fill="#B8B8B8"/>
<path d="M31.0628 3.0099H30.1028V7.9999H31.0628V5.01964C31.1118 4.85089 31.1851 4.69431 31.2828 4.5499C31.4428 4.31657 31.6461 4.1299 31.8928 3.9899C32.1395 3.8499 32.4128 3.7799 32.7128 3.7799C33.0995 3.7799 33.3861 3.8799 33.5728 4.0799C33.7661 4.27324 33.8628 4.56657 33.8628 4.9599V7.9999H34.8128V4.7499C34.8128 4.45657 34.7661 4.19657 34.6728 3.9699C34.5861 3.73657 34.4628 3.54324 34.3028 3.3899C34.1428 3.2299 33.9495 3.1099 33.7228 3.0299C33.4961 2.9499 33.2428 2.9099 32.9628 2.9099C32.6961 2.9099 32.4495 2.95657 32.2228 3.0499C31.9961 3.13657 31.7961 3.26657 31.6228 3.4399C31.4561 3.60657 31.3161 3.80324 31.2028 4.0299C31.1456 4.15149 31.0989 4.27883 31.0628 4.41192V3.0099Z" fill="#B8B8B8"/>
<path d="M38.4669 3.0099H39.4269V4.41193C39.463 4.27883 39.5097 4.15149 39.5669 4.0299C39.6802 3.80324 39.8202 3.60657 39.9869 3.4399C40.1602 3.26657 40.3602 3.13657 40.5869 3.0499C40.8135 2.95657 41.0602 2.9099 41.3269 2.9099C41.6069 2.9099 41.8602 2.9499 42.0869 3.0299C42.3135 3.1099 42.5069 3.2299 42.6669 3.3899C42.8269 3.54324 42.9502 3.73657 43.0369 3.9699C43.0755 4.06367 43.1061 4.16315 43.1287 4.26832C43.157 4.18602 43.1897 4.10654 43.2269 4.0299C43.3402 3.80324 43.4835 3.60657 43.6569 3.4399C43.8302 3.26657 44.0302 3.13657 44.2569 3.0499C44.4835 2.95657 44.7269 2.9099 44.9869 2.9099C45.2669 2.9099 45.5202 2.9499 45.7469 3.0299C45.9735 3.1099 46.1669 3.2299 46.3269 3.3899C46.4869 3.54324 46.6102 3.73657 46.6969 3.9699C46.7902 4.19657 46.8369 4.45657 46.8369 4.7499V7.9999H45.8869V4.9599C45.8869 4.56657 45.7902 4.27324 45.5969 4.0799C45.4102 3.8799 45.1235 3.7799 44.7369 3.7799C44.4369 3.7799 44.1635 3.8499 43.9169 3.9899C43.6702 4.1299 43.4669 4.31657 43.3069 4.5499C43.2573 4.62325 43.2139 4.69974 43.1769 4.77937V7.9999H42.2269V4.9599C42.2269 4.56657 42.1302 4.27324 41.9369 4.0799C41.7502 3.8799 41.4635 3.7799 41.0769 3.7799C40.7769 3.7799 40.5035 3.8499 40.2569 3.9899C40.0102 4.1299 39.8069 4.31657 39.6469 4.5499C39.5492 4.69431 39.4759 4.85089 39.4269 5.01965V7.9999H38.4669V3.0099Z" fill="#B8B8B8"/>
<path d="M48.6681 3.0099H47.6481L49.7209 7.93526L48.7381 9.9999H49.7481L52.7381 3.0099H51.7281L50.2011 6.85439L48.6681 3.0099Z" fill="#B8B8B8"/>
<path d="M62.4744 3.0099L61.291 6.80395L60.0744 3.0099H58.9444L57.7012 6.80252L56.5544 3.0099H55.5044L57.2144 7.9999H58.1144L59.5085 4.10915L60.8844 7.9999H61.7844L63.5144 3.0099H62.4744Z" fill="#B8B8B8"/>
<path fill-rule="evenodd" clip-rule="evenodd" d="M65.1475 7.7699C65.5008 7.9899 65.8908 8.0999 66.3175 8.0999C66.7042 8.0999 67.0275 8.0199 67.2875 7.8599C67.5475 7.69324 67.7508 7.47657 67.8975 7.2099C68.037 6.95619 68.1404 6.68738 68.2075 6.40349V6.9099C68.2075 7.04324 68.2142 7.19657 68.2275 7.3699C68.2408 7.54324 68.2542 7.69324 68.2675 7.8199L68.2875 7.9999H69.1675V3.0099H68.2075V4.43569C68.1897 4.35543 68.1697 4.27684 68.1475 4.1999C68.0408 3.80657 67.8475 3.49324 67.5675 3.2599C67.2942 3.02657 66.9075 2.9099 66.4075 2.9099C65.9542 2.9099 65.5442 3.02324 65.1775 3.2499C64.8108 3.4699 64.5208 3.77657 64.3075 4.1699C64.1008 4.55657 63.9975 5.00324 63.9975 5.5099C63.9975 6.01657 64.1008 6.46657 64.3075 6.8599C64.5142 7.24657 64.7942 7.5499 65.1475 7.7699ZM68.2075 5.5099C68.2075 5.83657 68.1475 6.13324 68.0275 6.3999C67.9075 6.66657 67.7242 6.8799 67.4775 7.0399C67.2375 7.19324 66.9408 7.2699 66.5875 7.2699C66.2675 7.2699 65.9842 7.19657 65.7375 7.0499C65.4975 6.89657 65.3075 6.6899 65.1675 6.4299C65.0275 6.16324 64.9575 5.85657 64.9575 5.5099C64.9575 4.99657 65.0975 4.57324 65.3775 4.2399C65.6642 3.90657 66.0675 3.7399 66.5875 3.7399C66.9342 3.7399 67.2275 3.81324 67.4675 3.9599C67.7142 4.10657 67.8975 4.31324 68.0175 4.5799C68.1442 4.84657 68.2075 5.15657 68.2075 5.5099Z" fill="#B8B8B8"/>
<path d="M70.0696 3.0099H71.0896L72.6226 6.8544L74.1496 3.0099H75.1596L72.1696 9.9999H71.1596L72.1424 7.93527L70.0696 3.0099Z" fill="#B8B8B8"/>
<path d="M60.072 11.9901V11.4751H59.477V11.9901H60.072Z" fill="#B8B8B8"/>
<path d="M60.012 12.5051H59.537V15.0001H60.012V12.5051Z" fill="#B8B8B8"/>
<path d="M31.3214 11.5051H31.7964V15.0001H31.3214V11.5051Z" fill="#B8B8B8"/>
<path d="M33.5964 12.5051L32.4283 13.6157L33.6914 15.0001H33.0864L31.8064 13.6051L32.9314 12.5051H33.5964Z" fill="#B8B8B8"/>
<path fill-rule="evenodd" clip-rule="evenodd" d="M21.7969 15.0001V11.7551H23.2569C23.6235 11.7551 23.9069 11.8301 24.1069 11.9801C24.3069 12.1301 24.4069 12.3451 24.4069 12.6251C24.4069 12.7984 24.3685 12.9384 24.2919 13.0451C24.2185 13.1518 24.1135 13.2318 23.9769 13.2851C23.886 13.3184 23.7847 13.3442 23.6732 13.3628C23.7489 13.3707 23.8218 13.3815 23.8919 13.3951C24.0152 13.4184 24.1219 13.4568 24.2119 13.5101C24.3052 13.5634 24.3785 13.6368 24.4319 13.7301C24.4885 13.8234 24.5169 13.9451 24.5169 14.0951C24.5169 14.2918 24.4702 14.4568 24.3769 14.5901C24.2835 14.7201 24.1535 14.8184 23.9869 14.8851C23.8235 14.9518 23.6335 14.9901 23.4169 15.0001H21.7969ZM22.2769 14.5701H23.3269C23.5469 14.5701 23.7185 14.5301 23.8419 14.4501C23.9652 14.3701 24.0269 14.2434 24.0269 14.0701C24.0269 13.9368 23.9885 13.8368 23.9119 13.7701C23.8352 13.7034 23.7352 13.6601 23.6119 13.6401C23.4919 13.6201 23.3669 13.6101 23.2369 13.6101H22.2769V14.5701ZM22.2769 13.1851H23.2169C23.4369 13.1851 23.6085 13.1418 23.7319 13.0551C23.8552 12.9651 23.9169 12.8351 23.9169 12.6651C23.9169 12.4918 23.8552 12.3684 23.7319 12.2951C23.6085 12.2218 23.4519 12.1851 23.2619 12.1851H22.2769V13.1851Z" fill="#B8B8B8"/>
<path fill-rule="evenodd" clip-rule="evenodd" d="M26.302 15.0551C26.0586 15.0551 25.8353 15.0034 25.632 14.9001C25.4286 14.7968 25.267 14.6484 25.147 14.4551C25.027 14.2618 24.967 14.0301 24.967 13.7601C24.967 13.4868 25.027 13.2534 25.147 13.0601C25.267 12.8634 25.4286 12.7134 25.632 12.6101C25.8353 12.5068 26.0586 12.4551 26.302 12.4551C26.5453 12.4551 26.767 12.5068 26.967 12.6101C27.167 12.7134 27.327 12.8634 27.447 13.0601C27.567 13.2534 27.627 13.4868 27.627 13.7601C27.627 14.0301 27.567 14.2618 27.447 14.4551C27.327 14.6484 27.167 14.7968 26.967 14.9001C26.767 15.0034 26.5453 15.0551 26.302 15.0551ZM26.302 14.6401C26.452 14.6401 26.5903 14.6068 26.717 14.5401C26.847 14.4701 26.9503 14.3701 27.027 14.2401C27.107 14.1068 27.147 13.9468 27.147 13.7601C27.147 13.5701 27.107 13.4084 27.027 13.2751C26.9503 13.1418 26.847 13.0401 26.717 12.9701C26.5903 12.9001 26.452 12.8651 26.302 12.8651C26.152 12.8651 26.012 12.9001 25.882 12.9701C25.752 13.0368 25.647 13.1368 25.567 13.2701C25.487 13.4034 25.447 13.5668 25.447 13.7601C25.447 13.9468 25.4853 14.1068 25.562 14.2401C25.642 14.3701 25.747 14.4701 25.877 14.5401C26.007 14.6068 26.1486 14.6401 26.302 14.6401Z" fill="#B8B8B8"/>
<path fill-rule="evenodd" clip-rule="evenodd" d="M28.7142 14.9001C28.9175 15.0034 29.1408 15.0551 29.3842 15.0551C29.6275 15.0551 29.8492 15.0034 30.0492 14.9001C30.2492 14.7968 30.4092 14.6484 30.5292 14.4551C30.6492 14.2618 30.7092 14.0301 30.7092 13.7601C30.7092 13.4868 30.6492 13.2534 30.5292 13.0601C30.4092 12.8634 30.2492 12.7134 30.0492 12.6101C29.8492 12.5068 29.6275 12.4551 29.3842 12.4551C29.1408 12.4551 28.9175 12.5068 28.7142 12.6101C28.5108 12.7134 28.3492 12.8634 28.2292 13.0601C28.1092 13.2534 28.0492 13.4868 28.0492 13.7601C28.0492 14.0301 28.1092 14.2618 28.2292 14.4551C28.3492 14.6484 28.5108 14.7968 28.7142 14.9001ZM29.7992 14.5401C29.6725 14.6068 29.5342 14.6401 29.3842 14.6401C29.2308 14.6401 29.0892 14.6068 28.9592 14.5401C28.8292 14.4701 28.7242 14.3701 28.6442 14.2401C28.5675 14.1068 28.5292 13.9468 28.5292 13.7601C28.5292 13.5668 28.5692 13.4034 28.6492 13.2701C28.7292 13.1368 28.8342 13.0368 28.9642 12.9701C29.0942 12.9001 29.2342 12.8651 29.3842 12.8651C29.5342 12.8651 29.6725 12.9001 29.7992 12.9701C29.9292 13.0401 30.0325 13.1418 30.1092 13.2751C30.1892 13.4084 30.2292 13.5701 30.2292 13.7601C30.2292 13.9468 30.1892 14.1068 30.1092 14.2401C30.0325 14.3701 29.9292 14.4701 29.7992 14.5401Z" fill="#B8B8B8"/>
<path d="M35.5331 12.5051H35.0231L36.0595 14.9678L35.5681 16.0001H36.0731L37.5681 12.5051H37.0631L36.2996 14.4273L35.5331 12.5051Z" fill="#B8B8B8"/>
<path fill-rule="evenodd" clip-rule="evenodd" d="M39.1447 15.0551C38.9014 15.0551 38.6781 15.0034 38.4747 14.9001C38.2714 14.7968 38.1097 14.6484 37.9897 14.4551C37.8697 14.2618 37.8097 14.0301 37.8097 13.7601C37.8097 13.4868 37.8697 13.2534 37.9897 13.0601C38.1097 12.8634 38.2714 12.7134 38.4747 12.6101C38.6781 12.5068 38.9014 12.4551 39.1447 12.4551C39.3881 12.4551 39.6097 12.5068 39.8097 12.6101C40.0097 12.7134 40.1697 12.8634 40.2897 13.0601C40.4097 13.2534 40.4697 13.4868 40.4697 13.7601C40.4697 14.0301 40.4097 14.2618 40.2897 14.4551C40.1697 14.6484 40.0097 14.7968 39.8097 14.9001C39.6097 15.0034 39.3881 15.0551 39.1447 15.0551ZM39.1447 14.6401C39.2947 14.6401 39.4331 14.6068 39.5597 14.5401C39.6897 14.4701 39.7931 14.3701 39.8697 14.2401C39.9497 14.1068 39.9897 13.9468 39.9897 13.7601C39.9897 13.5701 39.9497 13.4084 39.8697 13.2751C39.7931 13.1418 39.6897 13.0401 39.5597 12.9701C39.4331 12.9001 39.2947 12.8651 39.1447 12.8651C38.9947 12.8651 38.8547 12.9001 38.7247 12.9701C38.5947 13.0368 38.4897 13.1368 38.4097 13.2701C38.3297 13.4034 38.2897 13.5668 38.2897 13.7601C38.2897 13.9468 38.3281 14.1068 38.4047 14.2401C38.4847 14.3701 38.5897 14.4701 38.7197 14.5401C38.8497 14.6068 38.9914 14.6401 39.1447 14.6401Z" fill="#B8B8B8"/>
<path d="M42.902 15.0001H43.377V12.5051H42.902V13.9401C42.8797 14.0179 42.8464 14.0979 42.802 14.1801C42.7353 14.3001 42.642 14.4034 42.522 14.4901C42.4053 14.5734 42.2603 14.6151 42.087 14.6151C41.9736 14.6151 41.872 14.5968 41.782 14.5601C41.692 14.5234 41.622 14.4618 41.572 14.3751C41.5253 14.2884 41.502 14.1684 41.502 14.0151V12.5051H41.022V14.1151C41.022 14.2984 41.0503 14.4518 41.107 14.5751C41.1636 14.6951 41.2386 14.7901 41.332 14.8601C41.4253 14.9301 41.527 14.9801 41.637 15.0101C41.7503 15.0401 41.8603 15.0551 41.967 15.0551C42.1236 15.0551 42.257 15.0251 42.367 14.9651C42.477 14.9051 42.567 14.8284 42.637 14.7351C42.7103 14.6418 42.767 14.5451 42.807 14.4451C42.8503 14.3451 42.8803 14.2534 42.897 14.1701L42.902 14.1481V15.0001Z" fill="#B8B8B8"/>
<path d="M44.0554 12.5051H44.5354V13.2002C44.5525 13.1375 44.5775 13.0691 44.6104 12.9951C44.6504 12.9051 44.7037 12.8201 44.7704 12.7401C44.837 12.6568 44.9204 12.5884 45.0204 12.5351C45.1203 12.4818 45.2403 12.4551 45.3803 12.4551V12.9301C45.207 12.9301 45.0587 12.9701 44.9353 13.0501C44.8153 13.1301 44.7187 13.2284 44.6454 13.3451C44.598 13.424 44.5613 13.5006 44.5354 13.5749V15.0001H44.0554V12.5051Z" fill="#B8B8B8"/>
<path fill-rule="evenodd" clip-rule="evenodd" d="M47.4568 14.8851C47.6335 14.9951 47.8285 15.0501 48.0418 15.0501C48.2351 15.0501 48.3968 15.0101 48.5268 14.9301C48.6568 14.8468 48.7585 14.7384 48.8318 14.6051C48.9016 14.4782 48.9532 14.3438 48.9868 14.2019V14.4551C48.9868 14.5218 48.9901 14.5984 48.9968 14.6851C49.0035 14.7718 49.0101 14.8468 49.0168 14.9101L49.0268 15.0001H49.4668V12.5051H48.9868V13.218C48.9779 13.1779 48.9679 13.1386 48.9568 13.1001C48.9035 12.9034 48.8068 12.7468 48.6668 12.6301C48.5301 12.5134 48.3368 12.4551 48.0868 12.4551C47.8601 12.4551 47.6551 12.5118 47.4718 12.6251C47.2885 12.7351 47.1435 12.8884 47.0368 13.0851C46.9335 13.2784 46.8818 13.5018 46.8818 13.7551C46.8818 14.0084 46.9335 14.2334 47.0368 14.4301C47.1401 14.6234 47.2801 14.7751 47.4568 14.8851ZM48.9868 13.7551C48.9868 13.9184 48.9568 14.0668 48.8968 14.2001C48.8368 14.3334 48.7451 14.4401 48.6218 14.5201C48.5018 14.5968 48.3535 14.6351 48.1768 14.6351C48.0168 14.6351 47.8751 14.5984 47.7518 14.5251C47.6318 14.4484 47.5368 14.3451 47.4668 14.2151C47.3968 14.0818 47.3618 13.9284 47.3618 13.7551C47.3618 13.4984 47.4318 13.2868 47.5718 13.1201C47.7151 12.9534 47.9168 12.8701 48.1768 12.8701C48.3501 12.8701 48.4968 12.9068 48.6168 12.9801C48.7401 13.0534 48.8318 13.1568 48.8918 13.2901C48.9551 13.4234 48.9868 13.5784 48.9868 13.7551Z" fill="#B8B8B8"/>
<path fill-rule="evenodd" clip-rule="evenodd" d="M51.5678 15.0551C51.3745 15.0551 51.2128 15.0134 51.0828 14.9301C50.9529 14.8468 50.8512 14.7384 50.7779 14.6051C50.7081 14.4782 50.6564 14.3438 50.6228 14.2019V16.0001H50.1429V12.5051H50.6029L50.6228 13.0701V13.2061C50.6565 13.0674 50.7065 12.9437 50.7729 12.8351C50.8462 12.7151 50.9478 12.6218 51.0779 12.5551C51.2079 12.4884 51.3712 12.4551 51.5678 12.4551C51.7845 12.4551 51.9795 12.5118 52.1529 12.6251C52.3262 12.7351 52.4645 12.8884 52.5678 13.0851C52.6745 13.2818 52.7279 13.5051 52.7279 13.7551C52.7279 14.0118 52.6745 14.2384 52.5678 14.4351C52.4612 14.6284 52.3195 14.7801 52.1429 14.8901C51.9695 15.0001 51.7779 15.0551 51.5678 15.0551ZM50.7279 13.2901C50.6578 13.4234 50.6228 13.5784 50.6228 13.7551C50.6228 13.9218 50.6529 14.0718 50.7129 14.2051C50.7762 14.3351 50.8679 14.4401 50.9879 14.5201C51.1078 14.5968 51.2562 14.6351 51.4328 14.6351C51.5928 14.6351 51.7345 14.5984 51.8578 14.5251C51.9812 14.4484 52.0762 14.3451 52.1429 14.2151C52.2129 14.0818 52.2478 13.9284 52.2478 13.7551C52.2478 13.4984 52.1762 13.2868 52.0329 13.1201C51.8928 12.9534 51.6928 12.8701 51.4328 12.8701C51.2762 12.8701 51.1362 12.9068 51.0128 12.9801C50.8928 13.0534 50.7979 13.1568 50.7279 13.2901Z" fill="#B8B8B8"/>
<path fill-rule="evenodd" clip-rule="evenodd" d="M54.2188 14.9301C54.3488 15.0134 54.5105 15.0551 54.7038 15.0551C54.9138 15.0551 55.1055 15.0001 55.2788 14.8901C55.4555 14.7801 55.5971 14.6284 55.7038 14.4351C55.8105 14.2384 55.8638 14.0118 55.8638 13.7551C55.8638 13.5051 55.8105 13.2818 55.7038 13.0851C55.6005 12.8884 55.4621 12.7351 55.2888 12.6251C55.1155 12.5118 54.9205 12.4551 54.7038 12.4551C54.5071 12.4551 54.3438 12.4884 54.2138 12.5551C54.0838 12.6218 53.9821 12.7151 53.9088 12.8351C53.8424 12.9437 53.7924 13.0674 53.7588 13.2061V13.0701L53.7388 12.5051H53.2788V16.0001H53.7588V14.2019C53.7924 14.3438 53.844 14.4782 53.9138 14.6051C53.9871 14.7384 54.0888 14.8468 54.2188 14.9301ZM53.7588 13.7551C53.7588 13.5784 53.7938 13.4234 53.8638 13.2901C53.9338 13.1568 54.0288 13.0534 54.1488 12.9801C54.2721 12.9068 54.4121 12.8701 54.5688 12.8701C54.8288 12.8701 55.0288 12.9534 55.1688 13.1201C55.3121 13.2868 55.3838 13.4984 55.3838 13.7551C55.3838 13.9284 55.3488 14.0818 55.2788 14.2151C55.2121 14.3451 55.1171 14.4484 54.9938 14.5251C54.8705 14.5984 54.7288 14.6351 54.5688 14.6351C54.3921 14.6351 54.2438 14.5968 54.1238 14.5201C54.0038 14.4401 53.9121 14.3351 53.8488 14.2051C53.7888 14.0718 53.7588 13.9218 53.7588 13.7551Z" fill="#B8B8B8"/>
<path fill-rule="evenodd" clip-rule="evenodd" d="M57.6197 15.0551C57.3764 15.0551 57.1531 15.0034 56.9497 14.9001C56.7464 14.7968 56.5847 14.6484 56.4647 14.4551C56.3447 14.2618 56.2847 14.0301 56.2847 13.7601C56.2847 13.4868 56.3447 13.2534 56.4647 13.0601C56.5847 12.8634 56.7464 12.7134 56.9497 12.6101C57.1531 12.5068 57.3764 12.4551 57.6197 12.4551C57.8631 12.4551 58.0847 12.5068 58.2847 12.6101C58.4847 12.7134 58.6447 12.8634 58.7647 13.0601C58.8847 13.2534 58.9447 13.4868 58.9447 13.7601C58.9447 14.0301 58.8847 14.2618 58.7647 14.4551C58.6447 14.6484 58.4847 14.7968 58.2847 14.9001C58.0847 15.0034 57.8631 15.0551 57.6197 15.0551ZM57.6197 14.6401C57.7697 14.6401 57.9081 14.6068 58.0347 14.5401C58.1647 14.4701 58.2681 14.3701 58.3447 14.2401C58.4247 14.1068 58.4647 13.9468 58.4647 13.7601C58.4647 13.5701 58.4247 13.4084 58.3447 13.2751C58.2681 13.1418 58.1647 13.0401 58.0347 12.9701C57.9081 12.9001 57.7697 12.8651 57.6197 12.8651C57.4697 12.8651 57.3297 12.9001 57.1997 12.9701C57.0697 13.0368 56.9647 13.1368 56.8847 13.2701C56.8047 13.4034 56.7647 13.5668 56.7647 13.7601C56.7647 13.9468 56.8031 14.1068 56.8797 14.2401C56.9597 14.3701 57.0647 14.4701 57.1947 14.5401C57.3247 14.6068 57.4664 14.6401 57.6197 14.6401Z" fill="#B8B8B8"/>
<path d="M60.7384 12.5051H61.2184V13.2061C61.2364 13.1396 61.2598 13.0759 61.2884 13.0151C61.345 12.9018 61.415 12.8034 61.4984 12.7201C61.585 12.6334 61.685 12.5684 61.7984 12.5251C61.9117 12.4784 62.035 12.4551 62.1684 12.4551C62.3084 12.4551 62.435 12.4751 62.5484 12.5151C62.6617 12.5551 62.7584 12.6151 62.8384 12.6951C62.9184 12.7718 62.98 12.8684 63.0234 12.9851C63.07 13.0984 63.0934 13.2284 63.0934 13.3751V15.0001H62.6184V13.4801C62.6184 13.2834 62.57 13.1368 62.4734 13.0401C62.38 12.9401 62.2367 12.8901 62.0434 12.8901C61.8934 12.8901 61.7567 12.9251 61.6334 12.9951C61.51 13.0651 61.4084 13.1584 61.3284 13.2751C61.2795 13.3473 61.2428 13.4256 61.2184 13.51V15.0001H60.7384V12.5051Z" fill="#B8B8B8"/>
<path d="M64.1668 12.5051H63.5968V12.9201H64.1668V15.0001H64.6418V12.9201H65.2118V12.5051H64.6418V11.8451H64.1668V12.5051Z" fill="#B8B8B8"/>
<path d="M65.7163 12.5051H66.1963V13.2061C66.2143 13.1396 66.2377 13.0759 66.2663 13.0151C66.323 12.9018 66.393 12.8034 66.4763 12.7201C66.563 12.6334 66.663 12.5684 66.7763 12.5251C66.8896 12.4784 67.013 12.4551 67.1463 12.4551C67.2863 12.4551 67.413 12.4751 67.5263 12.5151C67.6396 12.5551 67.7363 12.6151 67.8163 12.6951C67.8963 12.7718 67.958 12.8684 68.0013 12.9851C68.0206 13.032 68.0359 13.0817 68.0472 13.1343C68.0614 13.0932 68.0777 13.0534 68.0963 13.0151C68.153 12.9018 68.2246 12.8034 68.3113 12.7201C68.398 12.6334 68.498 12.5684 68.6113 12.5251C68.7246 12.4784 68.8463 12.4551 68.9763 12.4551C69.1163 12.4551 69.243 12.4751 69.3563 12.5151C69.4696 12.5551 69.5663 12.6151 69.6463 12.6951C69.7263 12.7718 69.788 12.8684 69.8313 12.9851C69.878 13.0984 69.9013 13.2284 69.9013 13.3751V15.0001H69.4263V13.4801C69.4263 13.2834 69.378 13.1368 69.2813 13.0401C69.188 12.9401 69.0446 12.8901 68.8513 12.8901C68.7013 12.8901 68.5646 12.9251 68.4413 12.9951C68.318 13.0651 68.2163 13.1584 68.1363 13.2751C68.1115 13.3118 68.0898 13.35 68.0713 13.3898V15.0001H67.5963V13.4801C67.5963 13.2834 67.548 13.1368 67.4513 13.0401C67.358 12.9401 67.2146 12.8901 67.0213 12.8901C66.8713 12.8901 66.7346 12.9251 66.6113 12.9951C66.488 13.0651 66.3863 13.1584 66.3063 13.2751C66.2574 13.3473 66.2208 13.4256 66.1963 13.51V15.0001H65.7163V12.5051Z" fill="#B8B8B8"/>
<path fill-rule="evenodd" clip-rule="evenodd" d="M72.9607 14.1901H72.5057C72.4624 14.3234 72.3791 14.4318 72.2557 14.5151C72.1324 14.5984 71.9791 14.6401 71.7957 14.6401C71.6324 14.6401 71.4874 14.6068 71.3607 14.5401C71.2374 14.4734 71.1374 14.3818 71.0607 14.2651C70.9874 14.1484 70.9424 14.0151 70.9257 13.8651H72.9707C72.9874 13.5551 72.9507 13.2968 72.8607 13.0901C72.7741 12.8801 72.6391 12.7218 72.4557 12.6151C72.2724 12.5084 72.0457 12.4551 71.7757 12.4551C71.5191 12.4551 71.2907 12.5101 71.0907 12.6201C70.8907 12.7301 70.7341 12.8834 70.6207 13.0801C70.5074 13.2734 70.4507 13.5001 70.4507 13.7601C70.4507 14.0168 70.5091 14.2418 70.6257 14.4351C70.7424 14.6284 70.9024 14.7801 71.1057 14.8901C71.3091 15.0001 71.5407 15.0551 71.8007 15.0551C72.0207 15.0551 72.2124 15.0168 72.3757 14.9401C72.5391 14.8634 72.6707 14.7601 72.7707 14.6301C72.8707 14.5001 72.9341 14.3534 72.9607 14.1901ZM71.2407 13.0401C71.3841 12.9234 71.5641 12.8651 71.7807 12.8651C71.9741 12.8651 72.1374 12.9201 72.2707 13.0301C72.4041 13.1368 72.4774 13.2918 72.4907 13.4951H70.9557C71.0024 13.3051 71.0974 13.1534 71.2407 13.0401Z" fill="#B8B8B8"/>
<path d="M73.5262 12.5051H74.0062V13.2061C74.0243 13.1396 74.0476 13.0759 74.0762 13.0151C74.1329 12.9018 74.2029 12.8034 74.2863 12.7201C74.3729 12.6334 74.4729 12.5684 74.5863 12.5251C74.6996 12.4784 74.8229 12.4551 74.9563 12.4551C75.0963 12.4551 75.2229 12.4751 75.3363 12.5151C75.4496 12.5551 75.5462 12.6151 75.6263 12.6951C75.7063 12.7718 75.7679 12.8684 75.8112 12.9851C75.8579 13.0984 75.8813 13.2284 75.8813 13.3751V15.0001H75.4062V13.4801C75.4062 13.2834 75.3579 13.1368 75.2612 13.0401C75.1679 12.9401 75.0246 12.8901 74.8313 12.8901C74.6813 12.8901 74.5446 12.9251 74.4212 12.9951C74.2979 13.0651 74.1963 13.1584 74.1162 13.2751C74.0674 13.3473 74.0307 13.4256 74.0062 13.51V15.0001H73.5262V12.5051Z" fill="#B8B8B8"/>
<path d="M76.9547 12.5051H76.3846V12.9201H76.9547V15.0001H77.4296V12.9201H77.9996V12.5051H77.4296V11.8451H76.9547V12.5051Z" fill="#B8B8B8"/>
</svg>
