<svg width="46" height="20" viewBox="0 0 46 20" fill="none" xmlns="http://www.w3.org/2000/svg">
<path fill-rule="evenodd" clip-rule="evenodd" d="M30.3425 15.8725C31.2144 15.8725 31.8154 15.7281 33.1118 14.9344L32.233 12.8115C31.8763 12.974 31.5722 13.0223 31.0803 13.0223C30.2531 13.0223 29.7836 12.5309 29.7836 11.4989V5.30722H32.1389V2.77647H29.7836V0H26.5642V11.8184C26.5642 14.4965 27.8833 15.8725 30.3425 15.8725ZM12.0247 11.572C11.6446 14.3485 9.6325 15.8965 6.43547 15.8965C2.90308 15.8965 0.332031 13.464 0.332031 9.36071V9.16415C0.332031 5.11009 2.94778 2.48104 6.34603 2.48104C9.36419 2.48104 12.0471 4.42208 12.0471 9.01672V9.99954H3.61852C3.70792 12.1372 4.7587 13.3657 6.5249 13.3657C8.0228 13.3657 8.76062 12.6531 8.96177 11.572H12.0247ZM6.34603 4.93808C4.89285 4.93808 3.90914 5.99458 3.66322 7.81277H8.89472C8.7829 5.87176 7.88867 4.93808 6.34603 4.93808ZM16.9191 15.6263H13.6774V2.77587H16.9191V4.81522C17.5004 3.53754 18.7747 2.48104 20.7198 2.48104C23.0226 2.48104 24.6546 4.00439 24.6546 7.44422V15.6263H21.4128V7.9602C21.4128 6.21575 20.7869 5.38032 19.356 5.38032C17.9699 5.38032 16.9191 6.31401 16.9191 8.2059V15.6263ZM39.005 20H35.875L37.9319 14.3242L33.2817 2.77617H36.7693L39.6086 10.4913L42.2243 2.77617H45.332L39.005 20Z" fill="#B8B8B8"/>
</svg>
