<svg width="97" height="22" viewBox="0 0 97 22" fill="none" xmlns="http://www.w3.org/2000/svg">
<g clip-path="url(#clip0_1002_27860)">
<path d="M11.8555 21.9998C16.2154 21.6923 19.8757 18.8504 21.3719 14.9382H18.7882C17.467 17.5227 14.8862 19.3562 11.8555 19.6291V21.9998Z" fill="#B8B8B8"/>
<path d="M10.2785 17.8474V14.9382H5.41016C6.51385 16.5205 8.26444 17.618 10.2785 17.8474Z" fill="#B8B8B8"/>
<path d="M4.59156 13.3631H10.2796V8.63696H4.59152C4.32254 9.37402 4.17578 10.1699 4.17578 11C4.17578 11.8301 4.32256 12.626 4.59156 13.3631Z" fill="#B8B8B8"/>
<path d="M2.72828 8.63696C2.51582 9.38813 2.40213 10.1808 2.40213 11C2.40213 11.8192 2.51582 12.6119 2.72829 13.3631H0.29284C0.126635 12.6018 0.0390625 11.8112 0.0390625 11C0.0390627 10.1888 0.126633 9.39822 0.292833 8.63696H2.72828Z" fill="#B8B8B8"/>
<path d="M5.41016 7.06164H10.2786V4.15234C8.26446 4.38174 6.51384 5.4793 5.41016 7.06164Z" fill="#B8B8B8"/>
<path d="M11.8555 4.1521V7.06158H16.7255C15.6215 5.47883 13.8703 4.3811 11.8555 4.1521Z" fill="#B8B8B8"/>
<path d="M18.7882 7.06158C17.4671 4.47713 14.8862 2.64358 11.8555 2.37068V0C16.2154 0.307459 19.8757 3.14943 21.3719 7.06158H18.7882Z" fill="#B8B8B8"/>
<path d="M17.5451 8.63696H11.8555V13.3631H17.545C17.8141 12.626 17.9608 11.8301 17.9608 11C17.9608 10.1699 17.8141 9.37402 17.5451 8.63696Z" fill="#B8B8B8"/>
<path d="M19.4023 13.3631C19.6148 12.6119 19.7285 11.8192 19.7285 11C19.7285 10.1808 19.6148 9.38813 19.4023 8.63696H21.8378C22.004 9.39822 22.0916 10.1889 22.0916 11C22.0916 11.8112 22.004 12.6018 21.8378 13.3631H19.4023Z" fill="#B8B8B8"/>
<path d="M16.7254 14.9382H11.8555V17.8476C13.8702 17.6186 15.6214 16.5209 16.7254 14.9382Z" fill="#B8B8B8"/>
<path d="M10.277 2.37071C7.24675 2.64399 4.66643 4.47739 3.34547 7.06149H0.761719C2.25784 3.14972 5.91758 0.30791 10.277 0V2.37071Z" fill="#B8B8B8"/>
<path d="M0.761719 14.9382H3.34547C4.66644 17.5223 7.24674 19.3556 10.277 19.629V21.9997C5.91758 21.6918 2.25786 18.85 0.761719 14.9382Z" fill="#B8B8B8"/>
<path d="M27.5938 18.1246H30.0579V3.17114H27.5938V18.1246Z" fill="#B8B8B8"/>
<path d="M32.3984 18.1245H34.7151V11.1533C35.1574 10.1845 36.0631 9.48945 37.3057 9.48945C38.78 9.48945 39.6224 10.5425 39.6224 12.2064V18.1245H41.9392V11.8272C41.9392 9.11032 40.3385 7.3833 37.8112 7.3833C36.5685 7.3833 35.4312 7.82558 34.7151 8.71016V7.59391H32.3984V18.1245Z" fill="#B8B8B8"/>
<path d="M45.0299 18.1246H47.3466V9.65797H50.569V7.59394H47.3466V3.73975L45.0299 5.08766V7.59394H42.6289V9.65797H45.0299V18.1246Z" fill="#B8B8B8"/>
<path d="M51.7734 18.1247H54.0901V11.364C54.5535 10.2689 55.3749 9.76342 56.786 9.76342H57.7759V7.48877H56.9545C55.5645 7.48877 54.4903 8.16273 54.0901 8.98412V7.59408H51.7734V18.1247Z" fill="#B8B8B8"/>
<path d="M57.9336 12.8592C57.9336 16.5239 60.503 18.3351 63.5991 18.3351C65.0944 18.3351 66.1685 18.1035 67.2215 17.598V15.3445C66.1053 15.9973 65.0944 16.2501 63.8518 16.2501C62.1458 16.2501 60.4609 15.534 60.3556 13.4068H68.1483C68.2535 9.55261 66.1475 7.3833 63.1778 7.3833C60.166 7.3833 57.9336 9.4262 57.9336 12.8592ZM63.1568 9.2788C64.5257 9.2788 65.5156 10.1423 65.7052 11.743H60.3978C60.6715 9.9949 61.9563 9.2788 63.1568 9.2788Z" fill="#B8B8B8"/>
<path d="M69.8008 21.9998H72.1175V17.1346C72.8547 17.9139 73.9498 18.3351 75.1924 18.3351C78.3305 18.3351 80.4578 15.8288 80.4578 12.8592C80.4578 9.88958 78.3305 7.3833 75.1924 7.3833C73.9498 7.3833 72.8547 7.80453 72.1175 8.56273V7.59391H69.8008V21.9998ZM72.1175 14.7547V10.9426C72.6651 10.1212 73.5708 9.48945 74.9397 9.48945C76.7931 9.48945 78.0778 11.0058 78.0778 12.8592C78.0778 14.7126 76.7931 16.229 74.9397 16.229C73.5708 16.229 72.6651 15.5972 72.1175 14.7547Z" fill="#B8B8B8"/>
<path d="M84.5023 4.28747C84.5023 3.42396 83.8073 2.75 82.9438 2.75C82.1013 2.75 81.4062 3.42396 81.4062 4.28747C81.4062 5.12991 82.1013 5.82494 82.9438 5.82494C83.8073 5.82494 84.5023 5.12991 84.5023 4.28747ZM81.7854 18.1247H84.1021V7.59408H81.7854V18.1247Z" fill="#B8B8B8"/>
<path d="M85.4297 12.8593C85.4297 15.8289 87.5569 18.3352 90.6739 18.3352C91.9164 18.3352 93.0118 17.914 93.7488 17.1347V18.1246H96.0652V3.17114H93.7488V8.56281C93.0118 7.80461 91.9164 7.38338 90.6739 7.38338C87.5569 7.38338 85.4297 9.88966 85.4297 12.8593ZM93.7488 14.7548C93.2015 15.5973 92.2959 16.2291 90.9477 16.2291C89.0943 16.2291 87.8096 14.7127 87.8096 12.8593C87.8096 11.0059 89.0943 9.48953 90.9477 9.48953C92.2959 9.48953 93.2015 10.1213 93.7488 10.9427V14.7548Z" fill="#B8B8B8"/>
</g>
<defs>
<clipPath id="clip0_1002_27860">
<rect width="96.25" height="22" fill="white" transform="translate(0.0390625)"/>
</clipPath>
</defs>
</svg>
