<svg width="95" height="22" viewBox="0 0 95 22" fill="none" xmlns="http://www.w3.org/2000/svg">
<g clip-path="url(#clip0_1002_27847)">
<path fill-rule="evenodd" clip-rule="evenodd" d="M29.4642 10.9448H24.5596V18.9457H20.7802V10.9448H19.332V9.11674L20.8592 8.20274V8.02186C20.8592 6.59697 21.152 5.57617 21.7433 4.95176C22.3542 4.30522 23.0422 4.19458 23.8726 4.19458H27.2022V7.01357H25.0553C24.5362 7.01357 24.5567 7.36666 24.5567 7.86888V8.15752H29.4642V10.9476V10.9448Z" fill="#B8B8B8"/>
<path fill-rule="evenodd" clip-rule="evenodd" d="M32.1945 18.9456H28.4141V8.15454H32.1945V18.9456Z" fill="#B8B8B8"/>
<path fill-rule="evenodd" clip-rule="evenodd" d="M40.3162 18.9455V13.0584C40.3162 12.3397 40.2108 11.7999 40.0029 11.4324C39.7951 11.0649 39.4555 10.8859 38.99 10.8859C38.3538 10.8859 37.8932 11.1364 37.6082 11.6373C37.3233 12.1383 37.1815 12.9991 37.1828 14.2197V18.9446H33.4062V8.1545H36.2528L36.7241 9.48414H36.9486C37.2664 8.97739 37.7335 8.57831 38.2874 8.34019C38.9073 8.07458 39.5779 7.94334 40.2537 7.95535C41.4651 7.95535 42.4084 8.30106 43.0837 8.9925C43.7589 9.68394 44.0953 10.6624 44.0927 11.9279V18.9513L40.3162 18.9455Z" fill="#B8B8B8"/>
<path fill-rule="evenodd" clip-rule="evenodd" d="M53.7749 15.6283C53.7749 16.7829 53.3758 17.6578 52.5775 18.253C51.7793 18.8482 50.6314 19.1452 49.1338 19.1439C48.4266 19.1511 47.7199 19.1077 47.0191 19.014C46.3912 18.9227 45.7751 18.7646 45.1816 18.5426V15.56C45.8039 15.8245 46.4485 16.0347 47.1079 16.1883C47.7196 16.3419 48.3475 16.4246 48.9786 16.4346C49.7977 16.4301 50.2072 16.2428 50.2072 15.8727C50.2072 15.6803 50.0921 15.5119 49.8647 15.3657C49.6373 15.2194 48.9708 14.9231 47.8691 14.494C46.8659 14.0874 46.1643 13.6255 45.7642 13.1086C45.3641 12.5916 45.1641 11.9358 45.1641 11.1411C45.1641 10.1356 45.5603 9.35537 46.3448 8.79639C47.1294 8.2374 48.2419 7.95743 49.6763 7.95743C50.362 7.95333 51.0456 8.03184 51.7119 8.19122C52.3875 8.36265 53.0472 8.58987 53.6841 8.87047L52.6614 11.2757C52.1451 11.0497 51.6128 10.8606 51.0689 10.71C50.6236 10.5728 50.162 10.4942 49.6959 10.4762C49.0791 10.4762 48.7704 10.6257 48.7698 10.9246C48.7698 11.1064 48.8781 11.2661 49.0928 11.396C49.3075 11.5259 49.934 11.7895 50.9625 12.1898C51.7285 12.5015 52.2984 12.8045 52.6751 13.1038C53.0377 13.3824 53.3235 13.7463 53.5065 14.1621C53.6967 14.6289 53.7874 15.1293 53.7729 15.6322L53.7749 15.6283Z" fill="#B8B8B8"/>
<path fill-rule="evenodd" clip-rule="evenodd" d="M64.4278 18.9456L63.1934 13.8031L62.9006 12.2522L62.7054 11.0014H62.6488C62.3327 12.7762 62.1193 13.8987 62.0087 14.3688L60.9011 18.9475H56.9304L53.9453 8.15454H57.6652L58.5562 12.2974C58.8405 13.7188 59.0031 14.8993 59.0441 15.8389H59.1026C59.1195 15.254 59.2968 14.143 59.6345 12.5062L60.6503 8.15454H64.8269L65.754 12.5639C66.0467 13.9657 66.235 15.0587 66.3141 15.8351H66.3707C66.4097 15.354 66.4683 14.7527 66.5659 14.0302C66.6299 13.4479 66.7276 12.8696 66.8586 12.2984L67.8257 8.1555H71.4704L68.4648 18.9456H64.4249H64.4278Z" fill="#B8B8B8"/>
<path fill-rule="evenodd" clip-rule="evenodd" d="M76.0617 18.9456H72.2812V8.15454H76.0617V18.9456Z" fill="#B8B8B8"/>
<path fill-rule="evenodd" clip-rule="evenodd" d="M85.7456 15.6282C85.7456 16.7827 85.3465 17.6576 84.5482 18.2528C83.75 18.848 82.603 19.145 81.1074 19.1437C80.4015 19.1495 79.696 19.1048 78.9967 19.01C78.3687 18.9188 77.7526 18.7607 77.1592 18.5385V15.556C77.7814 15.8204 78.426 16.0306 79.0855 16.1843C79.6947 16.3364 80.3199 16.4181 80.9483 16.4277C81.7674 16.4277 82.1766 16.2436 82.176 15.8754C82.176 15.683 82.0608 15.5146 81.8325 15.3684C81.6041 15.2221 80.9386 14.9258 79.8378 14.4967C78.8347 14.0901 78.133 13.6282 77.733 13.1113C77.3329 12.5943 77.1328 11.9385 77.1328 11.1437C77.1328 10.1387 77.5264 9.35711 78.3136 8.79909C79.1008 8.24106 80.2113 7.96141 81.6451 7.96012C82.3308 7.95588 83.0144 8.03439 83.6807 8.19392C84.3566 8.36533 85.0166 8.59255 85.6538 8.87317L84.6312 11.2784C84.1145 11.0522 83.5819 10.8632 83.0376 10.7127C82.5927 10.5754 82.1314 10.4968 81.6656 10.4789C81.0489 10.4789 80.7402 10.6284 80.7395 10.9273C80.7395 11.1091 80.8478 11.2688 81.0625 11.3987C81.2772 11.5286 81.9037 11.7922 82.9322 12.1925C83.6973 12.5042 84.2682 12.8072 84.6448 13.1065C85.0071 13.3852 85.2926 13.7491 85.4753 14.1648C85.6663 14.6314 85.7573 15.1319 85.7426 15.6349L85.7456 15.6282Z" fill="#B8B8B8"/>
<path fill-rule="evenodd" clip-rule="evenodd" d="M94.9995 15.6281C94.9995 16.7827 94.6004 17.6576 93.8021 18.2528C93.0039 18.848 91.857 19.145 90.3613 19.1437C89.6545 19.1509 88.9481 19.1075 88.2476 19.0138C87.6197 18.9226 87.0036 18.7645 86.4101 18.5424V15.5598C87.0324 15.8243 87.677 16.0345 88.3364 16.1881C88.9478 16.3417 89.5753 16.4244 90.2062 16.4344C91.0246 16.4344 91.4338 16.2503 91.4338 15.8821C91.4338 15.6897 91.3186 15.5214 91.0903 15.3751C90.8619 15.2289 90.1964 14.9325 89.0957 14.5034C88.0925 14.0968 87.3909 13.635 86.9908 13.118C86.5907 12.601 86.3906 11.9452 86.3906 11.1505C86.3906 10.1454 86.7842 9.36384 87.5714 8.80581C88.3586 8.24779 89.4684 7.96589 90.901 7.96012C91.5863 7.95595 92.2696 8.03447 92.9356 8.19391C93.6115 8.36533 94.2715 8.59255 94.9087 8.87316L93.8861 11.2784C93.3694 11.0522 92.8368 10.8632 92.2925 10.7127C91.8476 10.5754 91.3863 10.4968 90.9205 10.4789C90.3037 10.4789 89.9951 10.6284 89.9944 10.9273C89.9944 11.1091 90.1027 11.2688 90.3174 11.3987C90.5321 11.5286 91.1586 11.7922 92.1871 12.1924C92.9522 12.5042 93.523 12.8072 93.8997 13.1065C94.262 13.3852 94.5475 13.7491 94.7302 14.1648C94.9209 14.6292 95.0126 15.1273 94.9995 15.6281Z" fill="#B8B8B8"/>
<path d="M20.8553 8.20361H19.3281V10.9447H20.8553V8.20361Z" fill="#B8B8B8"/>
<path d="M32.1945 4.03955H28.4141V6.94128H32.1945V4.03955Z" fill="#B8B8B8"/>
<path d="M76.0617 4.03955H72.2812V6.94128H76.0617V4.03955Z" fill="#B8B8B8"/>
<path fill-rule="evenodd" clip-rule="evenodd" d="M0 14.5699V4.07039C0 3.12347 0.381533 2.21532 1.06067 1.54574C1.7398 0.876166 2.6609 0.5 3.62134 0.5H14.2717V7.63983H7.24561V14.567H14.2717V21.4942H7.24561V14.567L0 14.5699Z" fill="#B8B8B8"/>
</g>
<defs>
<clipPath id="clip0_1002_27847">
<rect width="95" height="21" fill="white" transform="translate(0 0.5)"/>
</clipPath>
</defs>
</svg>
