<svg width="59" height="11" viewBox="0 0 59 11" fill="none" xmlns="http://www.w3.org/2000/svg">
<path fill-rule="evenodd" clip-rule="evenodd" d="M17.0205 1.12356C16.7107 0.208834 16.1412 0 15.8702 0H13.8906V10.5297H15.475V1.59646L15.9229 2.85723L18.7922 10.5297H20.7356L23.5902 2.85723L24.0536 1.66895V10.5297H25.638V0H23.6523C23.3848 0 22.8714 0.18726 22.5529 0.986353L20.6467 6.34787L19.7647 9.14555L18.8828 6.34787L17.0249 1.12011L17.0205 1.12443V1.12356Z" fill="white"/>
<path fill-rule="evenodd" clip-rule="evenodd" d="M30.59 3.14893C28.5008 3.14893 26.8008 4.62716 26.8008 6.91916C26.8008 9.21116 28.4999 10.6894 30.59 10.6894C32.6801 10.6894 34.3939 9.21116 34.3939 6.91916C34.3939 4.62716 32.6947 3.14893 30.59 3.14893ZM30.59 9.2871C29.0712 9.2871 28.3498 8.53288 28.3498 6.91916C28.3498 5.30544 29.0712 4.55122 30.59 4.55122C32.1088 4.55122 32.8449 5.30544 32.8449 6.91916C32.8449 8.53288 32.1235 9.2871 30.59 9.2871Z" fill="white"/>
<path fill-rule="evenodd" clip-rule="evenodd" d="M39.6418 3.14893C38.23 3.14893 37.4629 3.88761 37.1185 5.04655V3.29908H35.5859V10.5289H37.1185V7.1254C37.1185 5.453 37.8995 4.55036 39.1163 4.55036C40.0923 4.55036 40.6937 5.10782 40.6937 6.19169V10.5306H42.2263V6.08641C42.2263 4.17239 41.3401 3.14893 39.6418 3.14893Z" fill="white"/>
<path fill-rule="evenodd" clip-rule="evenodd" d="M45.4529 1.06225C45.4676 1.71809 45.0948 2.09002 44.4087 2.09002C43.7227 2.09002 43.3792 1.71723 43.3637 1.06225C43.349 0.421939 43.7373 0.0793473 44.4087 0.0793473C45.0663 0.0784844 45.4382 0.421076 45.4529 1.06225Z" fill="white"/>
<path d="M45.1593 3.28076H43.625V10.5295H45.1593V3.28076Z" fill="white"/>
<path fill-rule="evenodd" clip-rule="evenodd" d="M51.4842 4.68678V3.31986H49.2932V1.11157H47.7623V3.31986H46.2461V4.68678H47.7623V8.53209C47.7623 9.73418 48.5579 10.5298 49.7583 10.5298H51.2598V9.1629H49.2932V4.68678H51.4842Z" fill="white"/>
<path fill-rule="evenodd" clip-rule="evenodd" d="M55.5897 3.14893C53.516 3.14893 52.043 4.67203 52.043 6.93383C52.043 9.19562 53.4703 10.6885 55.6648 10.6885C57.1378 10.6885 58.5824 9.61329 58.8068 8.30592H57.4528C57.1223 9.18095 56.6865 9.43639 55.6794 9.43639C54.3272 9.43639 53.7102 8.86339 53.6058 7.40069H58.9854C59.0001 7.11419 59.0001 6.99337 59.0001 6.76728C59.0009 4.55122 57.603 3.14893 55.5888 3.14893H55.5897ZM53.6222 6.27022C53.7577 4.95767 54.4031 4.35533 55.6061 4.35533C56.809 4.35533 57.4097 4.88346 57.4692 6.27022H53.6222Z" fill="white"/>
<path fill-rule="evenodd" clip-rule="evenodd" d="M11.2889 8.05651C11.5676 7.84509 11.7937 7.43173 11.7937 7.13229V3.39744C11.7937 3.09799 11.5668 2.68464 11.2889 2.47322L8.08736 0H4.87891L10.6167 4.34151C10.8954 4.55293 11.1215 4.96628 11.1215 5.26573C11.1215 5.56517 10.8945 5.97852 10.6167 6.18995L4.87891 10.5297H8.08736L11.2889 8.05565V8.05651Z" fill="#3C37FF"/>
<path fill-rule="evenodd" clip-rule="evenodd" d="M6.32284 8.14281C6.60158 7.93138 6.82767 7.51803 6.82767 7.21858V3.31114C6.82767 3.0117 6.60071 2.59835 6.32284 2.38692L3.20845 0H0L5.7369 4.34151C6.01563 4.55293 6.24172 4.96628 6.24172 5.26573C6.24172 5.56517 6.01477 5.97852 5.7369 6.18995L0 10.5297H3.20845L6.32371 8.14194L6.32284 8.14281Z" fill="#3C37FF"/>
</svg>
