<svg width="98" height="20" viewBox="0 0 98 20" fill="none" xmlns="http://www.w3.org/2000/svg">
<path fill-rule="evenodd" clip-rule="evenodd" d="M18.7848 14.59C19.2431 14.2424 19.6148 13.5628 19.6148 13.0705V6.92998C19.6148 6.43766 19.2416 5.75807 18.7848 5.41046L13.5211 1.34424H8.24609L17.6796 8.48212C18.1378 8.82973 18.5096 9.50932 18.5096 10.0016C18.5096 10.494 18.1364 11.1736 17.6796 11.5212L8.24609 18.6562H13.5211L18.7848 14.5886V14.59Z" fill="#3C37FF"/>
<path fill-rule="evenodd" clip-rule="evenodd" d="M10.622 14.7319C11.0802 14.3843 11.452 13.7047 11.452 13.2123V6.7881C11.452 6.29578 11.0788 5.61619 10.622 5.26859L5.50159 1.34424H0.226562L9.65862 8.48212C10.1169 8.82973 10.4886 9.50932 10.4886 10.0016C10.4886 10.494 10.1155 11.1736 9.65862 11.5212L0.226562 18.6562H5.50159L10.6234 14.7304L10.622 14.7319Z" fill="#3C37FF"/>
<path fill-rule="evenodd" clip-rule="evenodd" d="M28.7592 3.06014C28.2499 1.55624 27.3135 1.21289 26.868 1.21289H23.6133V18.5249H26.2182V3.83764L26.9545 5.91047L31.672 18.5249H34.8671L39.5604 5.91047L40.3223 3.95681V18.5249H42.9271V1.21289H39.6625C39.2227 1.21289 38.3785 1.52077 37.855 2.83456L34.7209 11.6494L33.2709 16.2491L31.8209 11.6494L28.7663 3.05447L28.7592 3.06156V3.06014Z" fill="#0A0A0A"/>
<path fill-rule="evenodd" clip-rule="evenodd" d="M51.0697 6.39014C47.6348 6.39014 44.8398 8.82051 44.8398 12.5888C44.8398 16.3571 47.6334 18.7874 51.0697 18.7874C54.506 18.7874 57.3237 16.3571 57.3237 12.5888C57.3237 8.82051 54.5301 6.39014 51.0697 6.39014ZM51.0697 16.4819C48.5727 16.4819 47.3866 15.2419 47.3866 12.5888C47.3866 9.93567 48.5727 8.69566 51.0697 8.69566C53.5668 8.69566 54.777 9.93567 54.777 12.5888C54.777 15.2419 53.5909 16.4819 51.0697 16.4819Z" fill="#0A0A0A"/>
<path fill-rule="evenodd" clip-rule="evenodd" d="M65.9495 6.39014C63.6284 6.39014 62.3671 7.60461 61.801 9.51004V6.637H59.2812V18.5236H61.801V12.9279C61.801 10.1783 63.085 8.69424 65.0855 8.69424C66.6901 8.69424 67.679 9.61077 67.679 11.3928V18.5264H70.1988V11.2197C70.1988 8.07281 68.7417 6.39014 65.9495 6.39014Z" fill="#0A0A0A"/>
<path fill-rule="evenodd" clip-rule="evenodd" d="M75.5058 2.95926C75.53 4.03753 74.917 4.64902 73.7891 4.64902C72.6612 4.64902 72.0965 4.03611 72.071 2.95926C72.0469 1.90652 72.6853 1.34326 73.7891 1.34326C74.8702 1.34185 75.4817 1.9051 75.5058 2.95926Z" fill="#0A0A0A"/>
<path d="M75.0187 6.60693H72.4961V18.5247H75.0187V6.60693Z" fill="#0A0A0A"/>
<path fill-rule="evenodd" clip-rule="evenodd" d="M85.4206 8.91854V6.67119H81.8183V3.04053H79.3014V6.67119H76.8086V8.91854H79.3014V15.2406C79.3014 17.217 80.6095 18.5251 82.583 18.5251H85.0517V16.2778H81.8183V8.91854H85.4206Z" fill="#0A0A0A"/>
<path fill-rule="evenodd" clip-rule="evenodd" d="M92.1671 6.39014C88.7578 6.39014 86.3359 8.89428 86.3359 12.6129C86.3359 16.3315 88.6826 18.786 92.2906 18.786C94.7124 18.786 97.0875 17.0182 97.4563 14.8688H95.2303C94.6869 16.3074 93.9704 16.7274 92.3147 16.7274C90.0914 16.7274 89.077 15.7853 88.9053 13.3805H97.75C97.7741 12.9094 97.7741 12.7108 97.7741 12.3391C97.7756 8.69566 95.4771 6.39014 92.1657 6.39014H92.1671ZM88.9323 11.5219C89.1551 9.3639 90.2163 8.37359 92.1941 8.37359C94.1719 8.37359 95.1593 9.24189 95.2572 11.5219H88.9323Z" fill="#0A0A0A"/>
</svg>
